<?xml version="1.0" encoding="UTF-8" standalone="no"?>
<svg
   xmlns:dc="http://purl.org/dc/elements/1.1/"
   xmlns:cc="http://creativecommons.org/ns#"
   xmlns:rdf="http://www.w3.org/1999/02/22-rdf-syntax-ns#"
   xmlns:svg="http://www.w3.org/2000/svg"
   xmlns="http://www.w3.org/2000/svg"
   xmlns:sodipodi="http://sodipodi.sourceforge.net/DTD/sodipodi-0.dtd"
   xmlns:inkscape="http://www.inkscape.org/namespaces/inkscape"
   version="1.1"
   x="0px"
   y="0px"
   viewBox="0 0 16 16"
   enable-background="new 0 0 100 100"
   xml:space="preserve"
   id="svg10"
   sodipodi:docname="safari-pinned-tab.svg"
   inkscape:version="0.92.5 (2060ec1f9f, 2020-04-08)"
   width="16"
   height="16"
   inkscape:export-filename="/home/silasjimmy/Desktop/Dema icons/msapplication-icon-144x144.png"
   inkscape:export-xdpi="96"
   inkscape:export-ydpi="96"><metadata
     id="metadata16"><rdf:RDF><cc:Work
         rdf:about=""><dc:format>image/svg+xml</dc:format><dc:type
           rdf:resource="http://purl.org/dc/dcmitype/StillImage" /></cc:Work></rdf:RDF></metadata><defs
     id="defs14" /><sodipodi:namedview
     pagecolor="#ffffff"
     bordercolor="#666666"
     borderopacity="1"
     objecttolerance="10"
     gridtolerance="10"
     guidetolerance="10"
     inkscape:pageopacity="0"
     inkscape:pageshadow="2"
     inkscape:window-width="1366"
     inkscape:window-height="704"
     id="namedview12"
     showgrid="false"
     inkscape:zoom="2"
     inkscape:cx="-3.7739238"
     inkscape:cy="44.5"
     inkscape:window-x="0"
     inkscape:window-y="27"
     inkscape:window-maximized="1"
     inkscape:current-layer="svg10" /><path
     d="m 11.160931,10.42903 c 0,-1.25361 -1.415389,-4.05144 -3.160795,-4.05163 v 0 c 0,0 0,0 0,0 v 0 0 c -1.745405,1.8e-4 -3.160794,2.79802 -3.160794,4.05163 0,1.25361 1.415389,2.26965 3.160794,2.26965 v 0 0 c 0,0 0,0 0,0 v 0 c 1.745406,0 3.160795,-1.01604 3.160795,-2.26965 z"
     id="path2"
     style="fill:#000000;fill-opacity:1;stroke-width:0.22755322"
     inkscape:connector-curvature="0"
     inkscape:export-filename="/home/silasjimmy/Desktop/icon.png"
     inkscape:export-xdpi="96"
     inkscape:export-ydpi="96" /><path
     d="M 8.000136,0 V 0 H 7.999862 C 3.58184,0 0,7.08221 0,10.2549 0,13.42779 3.58184,16 7.999863,16 h 2.74e-4 v 0 C 12.418428,16 16,13.42779 16,10.2549 16.00027,7.08201 12.418428,0 8.000136,0 Z m 0,14.7998 c -3.648434,0 -6.606761,-2.12406 -6.606761,-4.74448 0,-2.62042 2.958596,-8.46926 6.606761,-8.46926 3.648166,0 6.606762,5.84903 6.606762,8.46926 0,2.62042 -2.958329,4.74448 -6.606762,4.74448 z"
     id="path4"
     style="fill:#000000;fill-opacity:1;stroke-width:0.22755322"
     inkscape:connector-curvature="0"
     inkscape:export-filename="/home/silasjimmy/Desktop/icon.png"
     inkscape:export-xdpi="96"
     inkscape:export-ydpi="96" /></svg>