<?xml version="1.0" encoding="UTF-8" standalone="no"?>
<!-- Created with Inkscape (http://www.inkscape.org/) -->

<svg
   xmlns:osb="http://www.openswatchbook.org/uri/2009/osb"
   xmlns:dc="http://purl.org/dc/elements/1.1/"
   xmlns:cc="http://creativecommons.org/ns#"
   xmlns:rdf="http://www.w3.org/1999/02/22-rdf-syntax-ns#"
   xmlns:svg="http://www.w3.org/2000/svg"
   xmlns="http://www.w3.org/2000/svg"
   xmlns:xlink="http://www.w3.org/1999/xlink"
   xmlns:sodipodi="http://sodipodi.sourceforge.net/DTD/sodipodi-0.dtd"
   xmlns:inkscape="http://www.inkscape.org/namespaces/inkscape"
   width="66.145836mm"
   height="26.458332mm"
   viewBox="0 0 66.145834 26.458332"
   version="1.1"
   id="svg8"
   sodipodi:docname="dema-logo-text.svg"
   inkscape:version="0.92.5 (2060ec1f9f, 2020-04-08)"
   inkscape:export-filename="/home/silasjimmy/Desktop/logo-text.png"
   inkscape:export-xdpi="96"
   inkscape:export-ydpi="96">
  <defs
     id="defs2">
    <linearGradient
       inkscape:collect="always"
       id="linearGradient2326">
      <stop
         style="stop-color:#4caf50;stop-opacity:1;"
         offset="0"
         id="stop2322" />
      <stop
         style="stop-color:#ff9800;stop-opacity:1"
         offset="1"
         id="stop2324" />
    </linearGradient>
    <linearGradient
       id="linearGradient2314"
       osb:paint="solid">
      <stop
         style="stop-color:#4caf50;stop-opacity:1;"
         offset="0"
         id="stop2312" />
    </linearGradient>
    <inkscape:path-effect
       effect="skeletal"
       id="path-effect47"
       is_visible="true"
       pattern="M 0,5 C 0,2.24 2.24,0 5,0 7.76,0 10,2.24 10,5 10,7.76 7.76,10 5,10 2.24,10 0,7.76 0,5 Z"
       copytype="single_stretched"
       prop_scale="1"
       scale_y_rel="false"
       spacing="0"
       normal_offset="0"
       tang_offset="0"
       prop_units="false"
       vertical_pattern="false"
       fuse_tolerance="0" />
    <inkscape:path-effect
       effect="spiro"
       id="path-effect45"
       is_visible="true" />
    <inkscape:path-effect
       effect="skeletal"
       id="path-effect40"
       is_visible="true"
       pattern="M 0,5 C 0,2.24 2.24,0 5,0 7.76,0 10,2.24 10,5 10,7.76 7.76,10 5,10 2.24,10 0,7.76 0,5 Z"
       copytype="single_stretched"
       prop_scale="1"
       scale_y_rel="false"
       spacing="0"
       normal_offset="0"
       tang_offset="0"
       prop_units="false"
       vertical_pattern="false"
       fuse_tolerance="0" />
    <inkscape:path-effect
       effect="spiro"
       id="path-effect38"
       is_visible="true" />
    <inkscape:path-effect
       effect="skeletal"
       id="path-effect34"
       is_visible="true"
       pattern="M 0,5 C 0,2.24 2.24,0 5,0 7.76,0 10,2.24 10,5 10,7.76 7.76,10 5,10 2.24,10 0,7.76 0,5 Z"
       copytype="single_stretched"
       prop_scale="1"
       scale_y_rel="false"
       spacing="0"
       normal_offset="0"
       tang_offset="0"
       prop_units="false"
       vertical_pattern="false"
       fuse_tolerance="0" />
    <inkscape:path-effect
       effect="spiro"
       id="path-effect32"
       is_visible="true" />
    <inkscape:path-effect
       effect="skeletal"
       id="path-effect28"
       is_visible="true"
       pattern="M 0,5 C 0,2.24 2.24,0 5,0 7.76,0 10,2.24 10,5 10,7.76 7.76,10 5,10 2.24,10 0,7.76 0,5 Z"
       copytype="single_stretched"
       prop_scale="1"
       scale_y_rel="false"
       spacing="0"
       normal_offset="0"
       tang_offset="0"
       prop_units="false"
       vertical_pattern="false"
       fuse_tolerance="0" />
    <inkscape:path-effect
       effect="spiro"
       id="path-effect26"
       is_visible="true" />
    <inkscape:path-effect
       effect="skeletal"
       id="path-effect22"
       is_visible="true"
       pattern="M 0,5 C 0,2.24 2.24,0 5,0 7.76,0 10,2.24 10,5 10,7.76 7.76,10 5,10 2.24,10 0,7.76 0,5 Z"
       copytype="single_stretched"
       prop_scale="1"
       scale_y_rel="false"
       spacing="0"
       normal_offset="0"
       tang_offset="0"
       prop_units="false"
       vertical_pattern="false"
       fuse_tolerance="0" />
    <inkscape:path-effect
       effect="spiro"
       id="path-effect20"
       is_visible="true" />
    <linearGradient
       inkscape:collect="always"
       xlink:href="#linearGradient2326"
       id="linearGradient2328"
       x1="129.17656"
       y1="213.00002"
       x2="127.17656"
       y2="289.00003"
       gradientUnits="userSpaceOnUse" />
  </defs>
  <sodipodi:namedview
     id="base"
     pagecolor="#ffffff"
     bordercolor="#666666"
     borderopacity="1.0"
     inkscape:pageopacity="0.0"
     inkscape:pageshadow="2"
     inkscape:zoom="1"
     inkscape:cx="-96.156378"
     inkscape:cy="46.811231"
     inkscape:document-units="mm"
     inkscape:current-layer="layer1"
     showgrid="false"
     inkscape:window-width="1366"
     inkscape:window-height="704"
     inkscape:window-x="0"
     inkscape:window-y="27"
     inkscape:window-maximized="1" />
  <metadata
     id="metadata5">
    <rdf:RDF>
      <cc:Work
         rdf:about="">
        <dc:format>image/svg+xml</dc:format>
        <dc:type
           rdf:resource="http://purl.org/dc/dcmitype/StillImage" />
        <dc:title />
      </cc:Work>
    </rdf:RDF>
  </metadata>
  <g
     inkscape:label="Layer 1"
     inkscape:groupmode="layer"
     id="layer1"
     transform="translate(-115.45535,-36.015863)">
    <g
       id="flowRoot47"
       style="font-style:normal;font-weight:normal;font-size:40px;line-height:1.25;font-family:sans-serif;letter-spacing:0px;word-spacing:0px;fill:#4caf50;fill-opacity:1;stroke:none"
       transform="matrix(0.71118574,0,0,1.0734287,54.669801,-200.00847)"
       aria-label="Dema">
      <path
         inkscape:connector-curvature="0"
         id="path62"
         style="font-style:normal;font-variant:normal;font-weight:normal;font-stretch:normal;font-size:40px;font-family:Dyuthi;-inkscape-font-specification:'Dyuthi, Normal';font-variant-ligatures:normal;font-variant-caps:normal;font-variant-numeric:normal;font-feature-settings:normal;text-align:center;writing-mode:lr-tb;text-anchor:middle;fill:#4caf50;fill-opacity:1"
         d="m 92.677734,241.8125 q 0,0 0.01953,0 3.75,0 6.386718,-2.42188 2.402348,-2.1875 2.402348,-8.4375 0,-3.63281 -2.402348,-5.83984 -2.636718,-2.42187 -6.386718,-2.42187 0,0 -0.01953,0 -0.78125,0 -1.347656,0.54687 -0.546875,0.54688 -0.546875,1.38672 v 15.25391 q 0,0.80078 0.546875,1.36718 0.566406,0.56641 1.347656,0.56641 z m -5.46875,-21.64063 q 4.199219,-0.29296 5.527344,-0.29296 6.5625,0 10.878902,3.35937 4.31641,3.35938 4.31641,9.25781 0,5.3125 -3.63281,8.55469 -3.92578,3.41797 -10.917971,3.41797 -1.289062,0 -6.132812,-0.23438 -0.78125,-0.0391 -1.289063,-0.5664 -0.488281,-0.54688 -0.488281,-1.32813 v -20.3125 q 0,-0.74218 0.507813,-1.28906 0.488281,-0.48828 1.230468,-0.56641 z" />
      <path
         inkscape:connector-curvature="0"
         id="path64"
         style="font-style:normal;font-variant:normal;font-weight:normal;font-stretch:normal;font-size:40px;font-family:Dyuthi;-inkscape-font-specification:'Dyuthi, Normal';font-variant-ligatures:normal;font-variant-caps:normal;font-variant-numeric:normal;font-feature-settings:normal;text-align:center;writing-mode:lr-tb;text-anchor:middle;fill:#4caf50;fill-opacity:1"
         d="m 118.83008,230.01562 q -1.38672,0 -2.73438,1.19141 -0.85937,0.76172 -1.1914,2.48047 h 8.55468 q -0.64453,-2.26563 -1.91406,-2.96875 -1.26953,-0.70313 -2.71484,-0.70313 z m 8.65234,5.50782 v 0.0195 q 0,1.64062 -1.5625,1.64062 h -10.8789 q 0.5664,1.77735 1.15234,2.34375 2.16797,1.99219 5.78125,0.3711 L 123.98633,239 q 1.30859,-0.58594 2.01172,0.41016 0.70312,0.99609 0.46875,2.05078 l -0.0391,0.0195 q -0.19531,0.8789 -1.79687,1.75781 -2.32422,1.28906 -6.40625,1.25 -2.92969,0 -5.66406,-2.61719 -2.71485,-2.61718 -2.71485,-6.34765 0,-3.75 2.61719,-6.40625 2.63672,-2.63672 6.21094,-2.57813 3.57422,0.0586 6.1914,2.5586 2.61719,2.5 2.61719,6.42578 z" />
      <path
         inkscape:connector-curvature="0"
         id="path66"
         style="font-style:normal;font-variant:normal;font-weight:normal;font-stretch:normal;font-size:40px;font-family:Dyuthi;-inkscape-font-specification:'Dyuthi, Normal';font-variant-ligatures:normal;font-variant-caps:normal;font-variant-numeric:normal;font-feature-settings:normal;text-align:center;writing-mode:lr-tb;text-anchor:middle;fill:#4caf50;fill-opacity:1"
         d="m 157.9707,235.17187 q 0,0 0,7.01172 0,1.01563 -0.625,1.67969 -0.625,0.64453 -1.93359,0.64453 h -0.0391 q -2.5586,0 -2.5586,-2.32422 v -9.3164 q 0,-1.28907 -0.97656,-2.22657 -0.95703,-0.91796 -2.24609,-0.8789 -1.28907,0.0391 -2.12891,0.97656 -0.85937,0.95703 -0.85937,2.22656 v 9.21875 q 0,1.01563 -0.60547,1.67969 -0.60547,0.66406 -1.95313,0.64453 h -0.50781 q -1.30859,0 -1.93359,-0.66406 -0.625,-0.66406 -0.625,-1.66016 v -9.3164 q 0,-1.28907 -0.9375,-2.22657 -0.9375,-0.9375 -2.2461,-0.8789 -1.32812,0.0391 -2.14844,1.01562 -0.82031,0.9961 -0.83984,2.1875 v 9.21875 q 0,1.03516 -0.64453,1.67969 -0.64453,0.64453 -1.95313,0.64453 h -0.37109 q -1.30859,0 -1.93359,-0.625 -0.625,-0.625 -0.625,-1.69922 V 228.375 q 0,-0.78125 0.48828,-1.28906 0.48828,-0.48828 1.28906,-0.50782 h 2.07031 q 0.70313,0 1.23047,0.52735 0.52735,0.50781 0.52735,1.26953 0.21484,-0.13672 0.5664,-0.50781 1.21094,-1.28907 2.59766,-1.64063 4.55078,-1.15234 7.05078,2.98828 h 0.11719 q 2.73437,-2.69531 4.16015,-2.98828 4.08203,-0.80078 6.34766,1.97266 2.24609,2.77344 2.24609,6.97265 z" />
      <path
         inkscape:connector-curvature="0"
         id="path68"
         style="font-style:normal;font-variant:normal;font-weight:normal;font-stretch:normal;font-size:40px;font-family:Dyuthi;-inkscape-font-specification:'Dyuthi, Normal';font-variant-ligatures:normal;font-variant-caps:normal;font-variant-numeric:normal;font-feature-settings:normal;text-align:center;writing-mode:lr-tb;text-anchor:middle;fill:#4caf50;fill-opacity:1"
         d="m 165.49023,235.15234 q 0,0 0,1.28907 0,2.03125 1.07422,3.45703 1.07422,1.42578 2.59766,1.38672 0.89844,0.0977 1.81641,-0.17579 1.85546,-0.64453 1.85546,-2.8125 0,0 0,-6.60156 -0.35156,-1.11328 -2.03125,-1.73828 -1.67968,-0.64453 -3.49609,0.21484 -1.81641,0.83985 -1.81641,4.98047 z m -2.85156,6.73828 q -2.5,-2.63671 -2.5,-6.36718 0,-3.75 2.5,-6.38672 2.5,-2.63672 6.05469,-2.63672 2.98828,0 4.14062,2.63672 0,-0.85938 0.64454,-1.50391 0.5664,-0.5664 1.42578,-0.5664 h 1.5039 q 0.85938,0 1.46485,0.5664 0.60547,0.64453 0.60547,1.50391 v 14.25781 q 0,0.50781 -0.35157,0.82031 -0.33203,0.3125 -0.80078,0.3125 h -2.34375 q -0.50781,0 -1.17187,-0.70312 -0.66407,-0.70313 -1.19141,-0.78125 -0.52734,-0.0781 -0.99609,0.23437 -1.9336,1.25 -2.92969,1.25 -3.55469,0 -6.05469,-2.63672 z" />
    </g>
  </g>
</svg>
